<!-- Generator: Adobe Illustrator 21.0.2, SVG Export Plug-In  -->
<svg version="1.1"
	 xmlns="http://www.w3.org/2000/svg" xmlns:xlink="http://www.w3.org/1999/xlink" xmlns:a="http://ns.adobe.com/AdobeSVGViewerExtensions/3.0/"
	 x="0px" y="0px" width="436.7px" height="448px" viewBox="0 0 436.7 448" style="enable-background:new 0 0 436.7 448;"
	 xml:space="preserve">
<style type="text/css">
	.st0{fill:#FFFFFF;}
</style>
<defs>
</defs>
<path class="st0" d="M29.3,257.5L7,235.3c-9.4-9.4-9.4-24.6,0-33.9L201.4,7c9.4-9.4,24.6-9.4,33.9,0l194.4,194.4
	c9.4,9.4,9.4,24.6,0,33.9l-22.2,22.2c-9.5,9.5-25,9.3-34.3-0.4L258.4,136.7V424c0,13.3-10.7,24-24,24h-32c-13.3,0-24-10.7-24-24
	l0-287.4L63.6,257.1C54.3,267,38.8,267.1,29.3,257.5L29.3,257.5z"/>
</svg>